<svg enable-background="new 0 0 1840 512" viewBox="0 0 1840 512" xmlns="http://www.w3.org/2000/svg" xmlns:xlink="http://www.w3.org/1999/xlink"><mask id="a" height="6" maskUnits="userSpaceOnUse" width="6" x="-3" y="-3"><circle fill="none" r="1.625" stroke="#fff" stroke-width="1.75"/></mask><path d="m629.28571 34.571423h581.42853v442.85715h-581.42853z" fill="#2b230f"/><path d="m1009.018 374.30077h-139.92709" fill="none" stroke="#fff" stroke-width="44.3395"/><path d="m629.28571-98.857155h581.42853v64.285744h-581.42853z" fill="#9f4f33" transform="scale(1 -1)"/><g fill="#2b230f"><circle cx="667.85718" cy="66.714272" r="17.857141"/><circle cx="716.42859" cy="66.714272" r="17.857141"/><circle cx="765" cy="66.714272" r="17.857141"/></g><g fill="#fff" transform="matrix(37.366146 0 0 37.366146 771.60071 263.0473)"><path d="m.5 0a.5.5 0 0 1 -.5.5.5.5 0 0 1 -.5-.5.5.5 0 0 1 .5-.5.5.5 0 0 1 .5.5z"/><g mask="url(#a)"><g><path d="m0 0v2.88h3" transform="matrix(.8660254 .5 -.5 .8660254 0 0)"/><path d="m0 0 1.44 2.4941532-2.5980762 1.5"/></g><g transform="matrix(-.5 .8660254 -.8660254 -.5 0 0)"><path d="m0 0v2.88h3" transform="matrix(.8660254 .5 -.5 .8660254 0 0)"/><path d="m0 0 1.44 2.4941532-2.5980762 1.5"/></g><g transform="matrix(-.5 -.8660254 .8660254 -.5 0 0)"><path d="m0 0v2.88h3" transform="matrix(.8660254 .5 -.5 .8660254 0 0)"/><path d="m0 0 1.44 2.4941532-2.5980762 1.5"/></g></g></g></svg>